<svg width="24" height="24" viewBox="0 0 24 24" fill="none" xmlns="http://www.w3.org/2000/svg">
<style>
.stand{fill:#C1722B}.legs{fill:#D58D4C}.screen{fill:#E6C2A0}.canvas{fill:#F6F0E3}
@media (prefers-color-scheme: dark){.stand{fill:#AF5D13}.legs{fill:#C6742A}.screen{fill:#D0A073}.canvas{fill:#F4EAD4}}
</style>
<path class="stand" d="M15.2375 19.3037V21.3037H8.77496V19.3037H15.2375Z"/>
<path class="legs" d="M13 4.09122V2.12872C13 1.57872 12.55 1.12872 12 1.12872C11.45 1.12872 11 1.57872 11 2.12872V4.09122H13ZM7.88747 22.6662L11.7125 17.2037L9.97497 16.1787L6.24997 21.5162C5.92497 21.9662 6.03747 22.5912 6.49997 22.9037C6.93747 23.2287 7.57497 23.1162 7.88747 22.6662ZM17.75 21.5162L14.025 16.1787L12.2875 17.2037L16.1125 22.6662C16.425 23.1162 17.0625 23.2287 17.5 22.9037C17.9625 22.5912 18.075 21.9662 17.75 21.5162Z"/>
<path class="screen" d="M17.5 17.8162C19.85 17.8162 21.5 16.1662 21.5 13.8162V6.81622C21.5 4.46622 19.85 2.81622 17.5 2.81622H6.5C4.15 2.81622 2.5 4.46622 2.5 6.81622V13.8162C2.5 16.1662 4.15 17.8162 6.5 17.8162H17.5Z"/>
<rect class="canvas" x="4.0249" y="4.349" width="15.9503" height="11.9344" rx="2.5"/>
</svg>
